<svg width="35" height="35" viewBox="0 0 35 35" fill="none" xmlns="http://www.w3.org/2000/svg">
<path d="M17.5 35C22.1413 35 26.5925 33.1563 29.8744 29.8744C33.1563 26.5925 35 22.1413 35 17.5C35 12.8587 33.1563 8.40752 29.8744 5.12563C26.5925 1.84374 22.1413 0 17.5 0C12.8587 0 8.40752 1.84374 5.12563 5.12563C1.84374 8.40752 0 12.8587 0 17.5C0 22.1413 1.84374 26.5925 5.12563 29.8744C8.40752 33.1563 12.8587 35 17.5 35ZM19.5344 14.4112L17.3469 24.7034C17.1938 25.4472 17.4103 25.8694 18.0119 25.8694C18.4363 25.8694 19.0772 25.7162 19.5125 25.3312L19.32 26.2413C18.6922 26.9981 17.3075 27.5494 16.1153 27.5494C14.5775 27.5494 13.9234 26.6262 14.3478 24.6641L15.9622 17.0778C16.1022 16.4369 15.9753 16.205 15.3344 16.0497L14.3478 15.8725L14.5272 15.0391L19.5366 14.4112H19.5344ZM17.5 12.0312C16.9198 12.0312 16.3634 11.8008 15.9532 11.3905C15.543 10.9803 15.3125 10.4239 15.3125 9.84375C15.3125 9.26359 15.543 8.70719 15.9532 8.29695C16.3634 7.88672 16.9198 7.65625 17.5 7.65625C18.0802 7.65625 18.6366 7.88672 19.0468 8.29695C19.457 8.70719 19.6875 9.26359 19.6875 9.84375C19.6875 10.4239 19.457 10.9803 19.0468 11.3905C18.6366 11.8008 18.0802 12.0312 17.5 12.0312Z" fill="#5454C5"/>
</svg>
