<svg width="35" height="22" viewBox="0 0 35 22" fill="none" xmlns="http://www.w3.org/2000/svg">
<path d="M9.11176 9.57336C8.58181 8.40397 8.30639 7.12063 8.30632 5.82027C8.30632 5.10861 8.40219 4.37734 8.59851 3.58769C8.6864 3.23247 8.79674 2.89277 8.92077 2.56327C8.44481 2.2844 7.92167 2.11292 7.36048 2.11292C5.27934 2.11292 3.59464 4.21688 3.59464 6.8153C3.59464 8.63305 4.42253 10.2062 5.63165 10.9889L0.527705 13.5384C0.209636 13.6988 0 14.0843 0 14.515V18.8381C0 19.4175 0.377041 19.887 0.840828 19.887H3.85754V15.3508C3.85754 14.0291 4.54314 12.8308 5.6073 12.2963L9.51163 10.345C9.3656 10.0957 9.23212 9.83807 9.11176 9.57336V9.57336Z" fill="white"/>
<path d="M21.3569 4.79407H34.3277V4.79367L34.33 4.79407C34.7002 4.79407 35 4.47193 35 4.07506V1.44929C35 1.05201 34.6998 0.730271 34.33 0.730271L34.3277 0.73068V0.728638H19.8335C20.4718 1.62989 20.9286 2.66364 21.175 3.76434C21.2568 4.12732 21.3162 4.46662 21.3569 4.79407V4.79407Z" fill="white"/>
<path d="M34.9996 17.7112C34.9996 17.314 34.6994 16.9922 34.3296 16.9922L34.3273 16.9926V16.9906H25.8726V20.7016C25.8726 20.8213 25.8665 20.9393 25.8555 21.0556H34.3273V21.0552L34.3296 21.0556C34.6998 21.0556 34.9996 20.7335 34.9996 20.3366V17.7112Z" fill="white"/>
<path d="M34.3295 8.86101L34.3272 8.86142V8.85938H20.9025C20.842 9.03045 20.778 9.20071 20.7069 9.36934C20.5706 9.69235 20.415 10.0056 20.2412 10.3072L24.1554 12.3111C24.4492 12.4666 24.7165 12.6741 24.946 12.9248H34.3272V12.9244L34.3295 12.9248C34.6996 12.9248 34.9995 12.6027 34.9995 12.2058V9.58002C34.9995 9.18275 34.6993 8.86101 34.3295 8.86101V8.86101Z" fill="white"/>
<path d="M23.3302 14.1447L18.9355 11.895L17.0769 10.9437C17.8888 10.3949 18.5478 9.54809 18.9792 8.52775C19.3389 7.67735 19.5251 6.75424 19.5252 5.82031C19.5252 5.26992 19.4441 4.74771 19.3304 4.24305C18.7776 1.80019 16.9996 0 14.8652 0C12.7712 0 11.0203 1.73568 10.4336 4.10954C10.2981 4.6538 10.2045 5.22011 10.2045 5.8199C10.2045 6.86188 10.4313 7.83282 10.8167 8.678C11.2622 9.65792 11.9223 10.4659 12.7259 10.9853L10.9461 11.8746L6.40863 14.1423C6.01409 14.3403 5.75537 14.8176 5.75537 15.3504V20.7012C5.75537 21.4182 6.22106 22 6.79594 22H22.9341C23.509 22 23.9747 21.4186 23.9747 20.7012V15.3508C23.9755 14.8196 23.7206 14.3472 23.3302 14.1447V14.1447Z" fill="white"/>
</svg>
