<svg width="609" height="505" viewBox="0 0 609 505" fill="none" xmlns="http://www.w3.org/2000/svg">
<path fill-rule="evenodd" clip-rule="evenodd" d="M560.485 364.969L579.954 308.835C585.732 292.176 581.35 273.676 568.713 261.381L568.164 260.848C555.46 248.488 549.258 230.9 551.399 213.303L558.701 153.266C562.487 122.148 540.336 93.8521 509.228 90.0658C507.642 89.8729 506.049 89.747 504.453 89.6884L481.045 88.8299L433.277 43.2193C417 27.6768 392.722 24.0251 372.595 34.0918L318.505 61.1453C309.746 65.5261 300.002 67.5649 290.222 67.0632L246.318 64.8109C222.894 63.6094 202.119 79.7394 197.473 102.736L190.113 139.157C189.629 141.551 189.301 143.974 189.129 146.411L182.227 244.344C181.896 249.038 180.684 253.628 178.655 257.873L159.675 297.57C153.77 309.921 152.526 323.99 156.173 337.185L163.852 364.969H560.485Z" fill="#C4C4DE"/>
<path fill-rule="evenodd" clip-rule="evenodd" d="M163.852 364.969L112.947 420.244C97.8712 436.613 98.916 462.108 115.28 477.188C122.256 483.616 131.275 487.377 140.75 487.807L518.37 504.958C540.597 505.967 559.434 488.761 560.443 466.527C560.471 465.918 560.485 465.309 560.485 464.699V364.969H163.852Z" fill="#8B8BB5"/>
<mask id="mask0" mask-type="alpha" maskUnits="userSpaceOnUse" x="240" y="0" width="370" height="232">
<path d="M256.059 182.768V0H240.739V190.431C240.739 194.663 244.168 198.094 248.399 198.094H373.359C382.28 198.094 391.032 200.526 398.675 205.128L427.274 222.352C437.303 228.391 448.787 231.582 460.492 231.582H609V216.257H460.492C451.571 216.257 442.819 213.825 435.176 209.222L406.577 191.999C396.548 185.96 385.064 182.768 373.359 182.768H256.059Z" fill="white"/>
</mask>
<g mask="url(#mask0)">
<path d="M256.059 182.768V0H240.739V190.431C240.739 194.663 244.168 198.094 248.399 198.094H373.359C382.28 198.094 391.032 200.526 398.675 205.128L427.274 222.352C437.303 228.391 448.787 231.582 460.492 231.582H609V216.257H460.492C451.571 216.257 442.819 213.825 435.176 209.222L406.577 191.999C396.548 185.96 385.064 182.768 373.359 182.768H256.059Z" fill="#FF8484"/>
<path fill-rule="evenodd" clip-rule="evenodd" d="M541.76 211.716H623.469V239.529H541.76V211.716ZM223.432 178.228H305.142V206.04H223.432V178.228ZM236.199 112.102V42.5703H270.529L264.003 112.102H236.199ZM399.051 172.552L464.873 203.77V231.582C462.984 238.806 455.229 241.833 441.609 240.664C427.988 239.495 407.088 234.008 378.908 224.204L399.051 172.552Z" fill="#DE6262"/>
</g>
<path fill-rule="evenodd" clip-rule="evenodd" d="M335.783 232.15L147.397 51.3682L130.941 284.37L332.095 248.611L335.783 232.15Z" fill="#FFEECD"/>
<mask id="mask1" mask-type="alpha" maskUnits="userSpaceOnUse" x="37" y="41" width="164" height="238">
<path d="M72.3303 275.822C109.357 290.769 160.28 251.186 186.069 187.412C211.858 123.637 202.748 59.8215 165.721 44.8747C128.694 29.9279 77.7712 69.5104 51.982 133.285C26.1929 197.059 35.3031 260.875 72.3303 275.822Z" fill="white"/>
</mask>
<g mask="url(#mask1)">
<path d="M129.827 284.442C169.602 280.944 197.01 222.55 191.044 154.015C185.079 85.4804 147.998 32.7572 108.223 36.2546C68.4484 39.7521 41.0404 98.1459 47.0061 166.681C52.9718 235.216 90.0519 287.939 129.827 284.442Z" fill="#F5CB76"/>
<path d="M196.763 240.948V251.165H135.481V240.948H106.542V229.596H166.122H226.837V240.948H196.763ZM195.629 240.948H166.122H136.616V250.03H195.629V240.948ZM135.481 239.813H166.122V230.731H107.677V239.813H135.481ZM167.257 239.813H196.763H225.702V230.731H167.257V239.813ZM121.863 79.1809H91.7891V88.2626H150.234V79.1809H121.863ZM121.863 78.0457H151.369V89.3978H91.7891H30.5068V78.0457H61.148V67.8289H121.863V78.0457ZM90.6543 88.2626V79.1809H61.148H31.6417V88.2626H90.6543ZM120.728 78.0457V68.9641H62.2828V78.0457H90.6543H120.728ZM60.0131 104.723H120.728V116.075H60.0131H0.433105V104.723H60.0131ZM60.0131 114.94V105.858H1.56796V114.94H60.0131ZM61.148 114.94H119.593V105.858H61.148V114.94Z" fill="white"/>
<path d="M226.269 267.058H166.689V277.274H226.269V267.058Z" stroke="white" stroke-width="1.15726"/>
<path d="M256.343 240.948H196.763V251.165H256.343V240.948Z" stroke="white" stroke-width="1.15726"/>
</g>
<path fill-rule="evenodd" clip-rule="evenodd" d="M324.983 255.422C315.174 271.796 315.174 281.285 324.983 283.89C334.793 286.495 343.121 278.494 349.969 259.887L324.983 255.422Z" fill="#353535"/>
<path d="M336.634 455.786C403.228 455.786 457.213 449.179 457.213 441.028C457.213 432.878 403.228 426.271 336.634 426.271C270.041 426.271 216.056 432.878 216.056 441.028C216.056 449.179 270.041 455.786 336.634 455.786Z" fill="#353535"/>
<mask id="mask2" mask-type="alpha" maskUnits="userSpaceOnUse" x="136" y="240" width="388" height="238">
<path d="M482.403 434.095L495.431 443.304C495.522 443.368 495.61 443.437 495.694 443.509C497.193 444.794 497.366 447.05 496.082 448.549C494.542 450.346 492.045 450.988 489.83 450.158C475.089 444.63 466.581 440.641 464.306 438.19L429.409 407.823L385.149 396.755L382.312 454.651C378.716 454.966 375.973 455.155 374.085 455.218C357.062 455.786 343.255 455.994 334.207 456.134C325.131 456.275 314.466 456.134 299.006 455.659C297.565 455.614 294.632 455.297 290.205 454.707L296.151 392.635L259.591 429.766C256.678 432.724 253.449 435.354 249.963 437.608L216.761 459.071C212.956 461.531 208.725 463.257 204.285 464.16L136.616 477.922C135.625 469.855 138.935 462.57 146.546 456.07C153.188 450.397 175.313 446.551 191.089 445.569C192.597 445.475 205.593 434.783 230.079 413.493C230.941 412.743 231.752 411.934 232.504 411.073L274.301 363.203C284.387 351.652 298.792 344.779 314.113 344.208L335.783 343.4L340.628 321.525H328.827C320.053 321.525 312.939 314.409 312.939 305.632C312.939 303.886 313.227 302.151 313.791 300.498L325.553 266.025C330.728 250.858 344.975 240.664 360.996 240.664H368.932C382.403 240.664 393.323 251.588 393.323 265.063C393.323 267.885 392.834 270.686 391.877 273.34L365.289 347.09L437.21 373.422C446.954 376.989 455.533 383.161 462.015 391.266L481.612 415.77C498.635 415.013 507.903 415.959 509.416 418.608C510.673 420.808 515.125 425.682 522.774 433.232C524.292 434.73 524.308 437.176 522.81 438.695C522.29 439.222 521.629 439.589 520.907 439.751C516.515 440.737 511.914 439.665 508.41 436.839L505.161 434.217C493.512 434.852 486.135 434.852 483.031 434.217C482.821 434.174 482.612 434.133 482.403 434.095Z" fill="white"/>
</mask>
<g mask="url(#mask2)">
<path d="M482.403 434.095L495.431 443.304C495.522 443.368 495.61 443.437 495.694 443.509C497.193 444.794 497.366 447.05 496.082 448.549C494.542 450.346 492.045 450.988 489.83 450.158C475.089 444.63 466.581 440.641 464.306 438.19L429.409 407.823L385.149 396.755L382.312 454.651C378.716 454.966 375.973 455.155 374.085 455.218C357.062 455.786 343.255 455.994 334.207 456.134C325.131 456.275 314.466 456.134 299.006 455.659C297.565 455.614 294.632 455.297 290.205 454.707L296.151 392.635L259.591 429.766C256.678 432.724 253.449 435.354 249.963 437.608L216.761 459.071C212.956 461.531 208.725 463.257 204.285 464.16L136.616 477.922C135.625 469.855 138.935 462.57 146.546 456.07C153.188 450.397 175.313 446.551 191.089 445.569C192.597 445.475 205.593 434.783 230.079 413.493C230.941 412.743 231.752 411.934 232.504 411.073L274.301 363.203C284.387 351.652 298.792 344.779 314.113 344.208L335.783 343.4L340.628 321.525H328.827C320.053 321.525 312.939 314.409 312.939 305.632C312.939 303.886 313.227 302.151 313.791 300.498L325.553 266.025C330.728 250.858 344.975 240.664 360.996 240.664H368.932C382.403 240.664 393.323 251.588 393.323 265.063C393.323 267.885 392.834 270.686 391.877 273.34L365.289 347.09L437.21 373.422C446.954 376.989 455.533 383.161 462.015 391.266L481.612 415.77C498.635 415.013 507.903 415.959 509.416 418.608C510.673 420.808 515.125 425.682 522.774 433.232C524.292 434.73 524.308 437.176 522.81 438.695C522.29 439.222 521.629 439.589 520.907 439.751C516.515 440.737 511.914 439.665 508.41 436.839L505.161 434.217C493.512 434.852 486.135 434.852 483.031 434.217C482.821 434.174 482.612 434.133 482.403 434.095Z" fill="#FFCDCD"/>
<path fill-rule="evenodd" clip-rule="evenodd" d="M322.733 342.549C327.839 351.252 336.351 356.171 348.267 357.307C360.183 358.442 368.883 355.604 374.369 348.793L434.516 360.943L409.265 407.256L396.498 405.553L385.328 455.488L280.774 462.597L296.457 393.406L280.774 422.788L237.051 374.212C255.94 355.636 272.653 344.42 287.189 340.564C301.726 336.708 313.574 337.37 322.733 342.549Z" fill="#FFF9D6"/>
</g>
<path fill-rule="evenodd" clip-rule="evenodd" d="M384.974 269.83L396.496 272.588C396.598 292.172 391.457 300.68 381.074 298.114C375.882 296.83 372.943 293.672 372.256 288.637C367.893 292.2 363.352 293.175 358.633 291.563C349.06 288.295 348.616 278.707 357.298 262.801L385.149 269.443C385.091 269.573 385.033 269.702 384.974 269.83V269.83Z" fill="#353535"/>
<mask id="mask3" mask-type="alpha" maskUnits="userSpaceOnUse" x="320" y="234" width="82" height="41">
<path d="M320.463 254.268L401.605 274.721C398.241 271.55 396.633 269.129 396.781 267.459C398.454 248.529 387.955 242.547 366.403 237.867C344.747 233.163 338.138 232.633 328.906 248.693C328.125 250.051 325.311 251.91 320.463 254.268Z" fill="white"/>
</mask>
<g mask="url(#mask3)">
<path d="M320.463 254.268L401.605 274.721C398.241 271.55 396.633 269.129 396.781 267.459C398.454 248.529 387.955 242.547 366.403 237.867C344.747 233.163 338.138 232.633 328.906 248.693C328.125 250.051 325.311 251.91 320.463 254.268Z" fill="#3C3CA0"/>
<path fill-rule="evenodd" clip-rule="evenodd" d="M336.918 248.043L398.484 264.503L400.186 257.976L339.188 239.529L336.918 248.043Z" fill="#26266F"/>
</g>
<path d="M333.796 251.449C339.907 251.449 344.861 246.493 344.861 240.381C344.861 234.268 339.907 229.312 333.796 229.312C327.685 229.312 322.731 234.268 322.731 240.381C322.731 246.493 327.685 251.449 333.796 251.449Z" fill="#F5CB76"/>
<path d="M333.797 248.61C338.654 248.61 342.592 244.926 342.592 240.38C342.592 235.835 338.654 232.15 333.797 232.15C328.939 232.15 325.001 235.835 325.001 240.38C325.001 244.926 328.939 248.61 333.797 248.61Z" fill="#FFEECD"/>
<path d="M330.296 268.974C329.094 266.132 327.353 264.787 325.002 264.787V263.084C327.937 263.084 330.168 264.697 331.632 267.792C337.326 264.398 342.108 265.636 345.592 271.444C345.833 271.847 345.703 272.37 345.3 272.612C344.897 272.854 344.374 272.723 344.132 272.32C341.013 267.12 337.072 266.252 331.876 269.646L320.106 289.567L327.007 290.913C327.468 291.003 327.769 291.45 327.679 291.911C327.589 292.373 327.142 292.674 326.681 292.584L318.597 291.008C318.02 290.895 317.728 290.245 318.027 289.739L330.296 268.974ZM336.918 276.991C335.664 276.991 334.648 275.974 334.648 274.72C334.648 273.466 335.664 272.45 336.918 272.45C338.171 272.45 339.187 273.466 339.187 274.72C339.187 275.974 338.171 276.991 336.918 276.991ZM325.002 273.585C323.748 273.585 322.732 272.568 322.732 271.314C322.732 270.061 323.748 269.044 325.002 269.044C326.255 269.044 327.271 270.061 327.271 271.314C327.271 272.568 326.255 273.585 325.002 273.585ZM321.393 302.343C318.811 301.638 317.189 299.5 317.772 297.567C318.354 295.634 320.921 294.638 323.503 295.344C326.086 296.049 327.707 298.187 327.125 300.12C326.542 302.053 323.976 303.048 321.393 302.343ZM314.84 309.901C315.003 309.46 315.492 309.234 315.933 309.396C316.374 309.559 316.6 310.048 316.438 310.49L314.452 315.882C314.289 316.323 313.8 316.549 313.359 316.387C312.918 316.224 312.692 315.734 312.854 315.293L314.84 309.901ZM318.245 311.036C318.408 310.595 318.897 310.369 319.338 310.532C319.779 310.694 320.005 311.184 319.842 311.625L317.856 317.017C317.694 317.458 317.205 317.684 316.763 317.522C316.322 317.359 316.097 316.87 316.259 316.428L318.245 311.036ZM321.65 312.171C321.812 311.73 322.301 311.504 322.743 311.667C323.184 311.829 323.409 312.319 323.247 312.76L321.261 318.152C321.098 318.594 320.609 318.819 320.168 318.657C319.727 318.494 319.501 318.005 319.664 317.564L321.65 312.171Z" fill="#353535"/>
<path fill-rule="evenodd" clip-rule="evenodd" d="M415.79 88.2622V99.6143H356.21H294.928V88.2622H306.276V76.9102H365.857H426.571V88.2622H415.79ZM365.857 111.534H426.571V122.886H365.857V111.534ZM227.971 318.142V328.926H166.689V318.142H136.615V306.79H196.195H256.91V318.142H227.971ZM552.541 173.97H583.182V185.322H523.602H462.319V173.97H432.246V162.618H491.826H552.541V173.97ZM507.714 302.533H548.001V313.885H487.286V303.1H446.999V291.748H507.714V302.533Z" fill="#8B8BB5"/>
<path d="M60.58 68.396H1V78.6129H60.58V68.396Z" stroke="white" stroke-width="1.15726"/>
<path d="M100.566 171.148V176.497H95.6404V180.509H89.3079V176.497H71.9287V171.148L89.3079 155.875H95.6404V171.148H100.566ZM78.7537 171.148H89.3079V162.21L78.7537 171.148ZM116.643 180.861C106.863 180.861 102.219 176.357 102.219 168.157C102.219 159.993 106.863 155.523 116.643 155.523C126.388 155.523 131.067 160.028 131.067 168.157C131.067 176.321 126.388 180.861 116.643 180.861ZM116.643 175.547C122.202 175.547 124.735 172.767 124.735 168.157C124.735 163.582 122.202 160.837 116.643 160.837C111.085 160.837 108.552 163.547 108.552 168.157C108.552 172.802 111.085 175.547 116.643 175.547ZM161.78 171.148V176.497H156.855V180.509H150.522V176.497H133.143V171.148L150.522 155.875H156.855V171.148H161.78ZM139.968 171.148H150.522V162.21L139.968 171.148Z" fill="white"/>
<path fill-rule="evenodd" clip-rule="evenodd" d="M365.289 191.283H370.396V202.635H365.289V191.283ZM493.528 224.204H498.635V235.556H493.528V224.204Z" fill="#8B8BB5"/>
<path fill-rule="evenodd" clip-rule="evenodd" d="M420.898 445.569H328.974V456.07H320.463V420.878C320.463 418.527 322.368 416.621 324.719 416.621C327.069 416.621 328.974 418.527 328.974 420.878V437.055H420.898V420.878C420.898 418.527 422.803 416.621 425.154 416.621C427.504 416.621 429.409 418.527 429.409 420.878V450.394L420.898 451.529V445.569Z" fill="#FF8484"/>
<path d="M163.356 464.326C159.609 465.451 157.042 468.901 157.042 472.814C157.042 473.285 157.424 473.666 157.894 473.666C158.364 473.666 158.745 473.285 158.745 472.814C158.745 469.653 160.818 466.866 163.845 465.957L172.324 463.413C172.578 463.337 172.783 463.146 172.876 462.897C173.214 461.997 175.572 460.455 179.805 458.549C183.732 456.782 185.931 456.488 188.577 456.826L188.938 456.873C189.079 456.891 189.188 456.905 189.292 456.916C189.759 456.968 190.18 456.631 190.232 456.164C190.284 455.697 189.947 455.276 189.48 455.224C189.387 455.213 189.287 455.201 189.155 455.184C189.114 455.179 188.867 455.147 188.793 455.137C185.843 454.761 183.328 455.096 179.107 456.996C174.831 458.921 172.326 460.481 171.483 461.887L163.356 464.326Z" fill="#353535"/>
<path fill-rule="evenodd" clip-rule="evenodd" d="M368.127 296.663C379.634 299.653 386.327 297.42 388.205 289.966C389.63 284.313 386.647 279.649 380.104 281.231C378.714 281.567 376.045 284.127 372.099 288.911L368.127 296.663Z" fill="#FFCDCD"/>
<path d="M491.661 425.411L500.311 424.197C504.859 423.558 509.463 424.884 512.976 427.843L523.338 436.571C523.697 436.874 524.234 436.828 524.537 436.468C524.84 436.109 524.794 435.572 524.434 435.269L514.072 426.54C510.19 423.27 505.101 421.805 500.075 422.51L491.424 423.725C490.959 423.79 490.634 424.221 490.7 424.686C490.765 425.152 491.195 425.476 491.661 425.411Z" fill="#353535"/>
<path d="M355.644 88.8298H306.277V87.6946H366.425V76.9102H367.56V87.6946H415.791V88.8298H356.779V99.6143H355.644V88.8298ZM523.035 174.538H462.604C462.291 174.538 462.037 174.284 462.037 173.97C462.037 173.657 462.291 173.403 462.604 173.403H492.394V162.618H493.529V173.403H552.542C552.855 173.403 553.109 173.657 553.109 173.97C553.109 174.284 552.855 174.538 552.542 174.538H524.17V185.322H523.035V174.538ZM487.287 303.384C486.974 303.384 486.72 303.13 486.72 302.817C486.72 302.503 486.974 302.249 487.287 302.249H507.715C508.028 302.249 508.282 302.503 508.282 302.817C508.282 303.13 508.028 303.384 507.715 303.384H487.287ZM196.196 317.574V306.79H197.331V317.574H227.972V318.709H167.257V317.574H196.196Z" fill="#353535"/>
</svg>
