<svg width="127" height="95" viewBox="0 0 127 95" fill="none" xmlns="http://www.w3.org/2000/svg">
<path d="M88.3094 8.95689V72.3554L63.6708 80.3123L39.0322 72.3554V8.95689L63.6708 1L88.3094 8.95689Z" fill="#C6E9F1"/>
<path d="M39.0322 8.95689V72.3554L63.6708 80.3123M39.0322 8.95689L63.6708 1L88.3094 8.95689M39.0322 8.95689L63.6708 19.2239M88.3094 8.95689V72.3554L63.6708 80.3123M88.3094 8.95689L63.6708 19.2239M63.6708 80.3123V19.2239" stroke="#16BDCA"/>
<path d="M63.6705 39.15V80.6564L39.0319 85.6665L14.3933 80.4794V39.15L39.0319 33.9629L63.6705 39.15Z" fill="#C6E9F1"/>
<path d="M14.3933 39.15V80.4794L39.0319 85.6665M14.3933 39.15L39.0319 33.9629L63.6705 39.15M14.3933 39.15L39.0319 45.843M63.6705 39.15V80.6565L39.0319 85.6665M63.6705 39.15L39.0319 45.843M39.0319 85.6665V45.843" stroke="#16BDCA"/>
<path d="M113.115 52.1127V80.7357L88.4767 84.328L63.8381 80.7357V52.1127L88.4767 48.5204L113.115 52.1127Z" fill="#C6E9F1"/>
<path d="M63.8381 52.1127V80.7357L88.4767 84.328M63.8381 52.1127L88.4767 48.5204L113.115 52.1127M63.8381 52.1127L88.4767 56.748M113.115 52.1127V80.7357L88.4767 84.328M113.115 52.1127L88.4767 56.748M88.4767 84.328V56.748" stroke="#16BDCA"/>
<rect x="59.145" y="48.1858" width="2.34653" height="27.1067" rx="1.17327" fill="white" fill-opacity="0.75"/>
<rect x="83.281" y="18.7366" width="2.34653" height="27.1067" rx="1.17327" fill="white" fill-opacity="0.75"/>
<rect x="108.422" y="60.9025" width="2.34653" height="17.0672" rx="1.17327" fill="white" fill-opacity="0.75"/>
</svg>
