<svg width="45" height="46" viewBox="0 0 45 46" fill="none" xmlns="http://www.w3.org/2000/svg">
<path d="M22.5 35C27.1413 35 31.5925 33.1563 34.8744 29.8744C38.1563 26.5925 40 22.1413 40 17.5C40 12.8587 38.1563 8.40752 34.8744 5.12563C31.5925 1.84374 27.1413 0 22.5 0C17.8587 0 13.4075 1.84374 10.1256 5.12563C6.84374 8.40752 5 12.8587 5 17.5C5 22.1413 6.84374 26.5925 10.1256 29.8744C13.4075 33.1563 17.8587 35 22.5 35ZM24.5344 14.4112L22.3469 24.7034C22.1938 25.4472 22.4103 25.8694 23.0119 25.8694C23.4363 25.8694 24.0772 25.7162 24.5125 25.3312L24.32 26.2413C23.6922 26.9981 22.3075 27.5494 21.1153 27.5494C19.5775 27.5494 18.9234 26.6262 19.3478 24.6641L20.9622 17.0778C21.1022 16.4369 20.9753 16.205 20.3344 16.0497L19.3478 15.8725L19.5272 15.0391L24.5366 14.4112H24.5344ZM22.5 12.0312C21.9198 12.0312 21.3634 11.8008 20.9532 11.3905C20.543 10.9803 20.3125 10.4239 20.3125 9.84375C20.3125 9.26359 20.543 8.70719 20.9532 8.29695C21.3634 7.88672 21.9198 7.65625 22.5 7.65625C23.0802 7.65625 23.6366 7.88672 24.0468 8.29695C24.457 8.70719 24.6875 9.26359 24.6875 9.84375C24.6875 10.4239 24.457 10.9803 24.0468 11.3905C23.6366 11.8008 23.0802 12.0312 22.5 12.0312Z" fill="#5454C5"/>
</svg>
