<svg width="35" height="35" viewBox="0 0 35 35" fill="none" xmlns="http://www.w3.org/2000/svg">
<path d="M24.0625 28.4375C25.2706 28.4375 26.25 27.4581 26.25 26.25C26.25 25.0419 25.2706 24.0625 24.0625 24.0625C22.8544 24.0625 21.875 25.0419 21.875 26.25C21.875 27.4581 22.8544 28.4375 24.0625 28.4375Z" fill="#5454C5"/>
<path d="M32.5686 25.6802C31.8928 23.9585 30.7266 22.4729 29.2146 21.4077C27.7026 20.3425 25.9112 19.7444 24.0625 19.6875C22.2138 19.7444 20.4224 20.3425 18.9104 21.4077C17.3984 22.4729 16.2322 23.9585 15.5564 25.6802L15.3125 26.25L15.5564 26.8198C16.2322 28.5415 17.3984 30.0271 18.9104 31.0923C20.4224 32.1575 22.2138 32.7556 24.0625 32.8125C25.9112 32.7556 27.7026 32.1575 29.2146 31.0923C30.7266 30.0271 31.8928 28.5415 32.5686 26.8198L32.8125 26.25L32.5686 25.6802ZM24.0625 30.625C23.1972 30.625 22.3513 30.3684 21.6319 29.8877C20.9124 29.4069 20.3517 28.7237 20.0205 27.9242C19.6894 27.1248 19.6028 26.2451 19.7716 25.3965C19.9404 24.5478 20.3571 23.7683 20.9689 23.1564C21.5808 22.5446 22.3603 22.1279 23.209 21.9591C24.0576 21.7903 24.9373 21.8769 25.7367 22.208C26.5362 22.5392 27.2194 23.0999 27.7002 23.8194C28.1809 24.5388 28.4375 25.3847 28.4375 26.25C28.4361 27.4099 27.9747 28.5218 27.1545 29.342C26.3343 30.1622 25.2224 30.6236 24.0625 30.625Z" fill="#5454C5"/>
<path d="M13.125 30.6249H8.75V4.37488H17.5V10.9374C17.5017 11.517 17.7328 12.0724 18.1426 12.4823C18.5525 12.8921 19.1079 13.1232 19.6875 13.1249H26.25V17.4999H28.4375V10.9374C28.4414 10.7936 28.414 10.6508 28.3574 10.5186C28.3007 10.3864 28.2161 10.2681 28.1094 10.1718L20.4531 2.51551C20.3568 2.4087 20.2385 2.32405 20.1063 2.2674C19.9742 2.21075 19.8313 2.18345 19.6875 2.18738H8.75C8.17037 2.18911 7.61498 2.42014 7.20512 2.83C6.79526 3.23986 6.56423 3.79525 6.5625 4.37488V30.6249C6.56423 31.2045 6.79526 31.7599 7.20512 32.1698C7.61498 32.5796 8.17037 32.8107 8.75 32.8124H13.125V30.6249ZM19.6875 4.81238L25.8125 10.9374H19.6875V4.81238Z" fill="#5454C5"/>
</svg>
