<svg width="37" height="40" viewBox="0 0 37 40" fill="none" xmlns="http://www.w3.org/2000/svg">
<g filter="url(#filter0_d)">
<path d="M18.5 2.1875C19.7007 2.18733 20.8582 2.63603 21.745 3.4455C22.6319 4.25498 23.1841 5.36674 23.2933 6.5625H30.75C31.0825 6.5626 31.4026 6.68893 31.6456 6.91595C31.8886 7.14298 32.0364 7.45377 32.059 7.78554C32.0817 8.11731 31.9776 8.44531 31.7677 8.70327C31.5579 8.96124 31.2579 9.12992 30.9285 9.17525L30.75 9.1875H29.7297L27.5125 28.4025C27.4138 29.2554 27.0049 30.0423 26.3638 30.6135C25.7226 31.1846 24.8939 31.5001 24.0352 31.5H12.9648C12.1061 31.5001 11.2774 31.1846 10.6362 30.6135C9.99508 30.0423 9.58624 29.2554 9.4875 28.4025L7.2685 9.1875H6.25C5.93283 9.18749 5.6264 9.07263 5.38737 8.86416C5.14834 8.65569 4.99288 8.36772 4.94975 8.0535L4.9375 7.875C4.93751 7.55783 5.05237 7.2514 5.26084 7.01237C5.46931 6.77334 5.75728 6.61788 6.0715 6.57475L6.25 6.5625H13.7067C13.8159 5.36674 14.3681 4.25498 15.255 3.4455C16.1418 2.63603 17.2993 2.18733 18.5 2.1875ZM15.875 13.125C15.4462 13.125 15.0875 13.3963 15.014 13.7533L15 13.8915V24.6102L15.014 24.7467C15.0875 25.1038 15.4462 25.375 15.875 25.375C16.3038 25.375 16.6625 25.1038 16.736 24.7467L16.75 24.6085V13.8933L16.736 13.7533C16.6625 13.398 16.3038 13.125 15.875 13.125ZM21.125 13.125C20.6962 13.125 20.3375 13.3963 20.264 13.7533L20.25 13.8915V24.6102L20.264 24.7467C20.3375 25.1038 20.6962 25.375 21.125 25.375C21.5537 25.375 21.9125 25.1038 21.986 24.7467L22 24.6085V13.8933L21.986 13.7533C21.9125 13.398 21.5537 13.1267 21.125 13.1267V13.125ZM18.5 4.8125C17.4412 4.8125 16.5575 5.565 16.3562 6.5625H20.6438C20.4408 5.565 19.5588 4.8125 18.5 4.8125Z" fill="#5454C5"/>
</g>
<defs>
<filter id="filter0_d" x="-3" y="0" width="43" height="43" filterUnits="userSpaceOnUse" color-interpolation-filters="sRGB">
<feFlood flood-opacity="0" result="BackgroundImageFix"/>
<feColorMatrix in="SourceAlpha" type="matrix" values="0 0 0 0 0 0 0 0 0 0 0 0 0 0 0 0 0 0 127 0"/>
<feOffset dy="4"/>
<feGaussianBlur stdDeviation="2"/>
<feColorMatrix type="matrix" values="0 0 0 0 0 0 0 0 0 0 0 0 0 0 0 0 0 0 0.25 0"/>
<feBlend mode="normal" in2="BackgroundImageFix" result="effect1_dropShadow"/>
<feBlend mode="normal" in="SourceGraphic" in2="effect1_dropShadow" result="shape"/>
</filter>
</defs>
</svg>
