<svg width="28" height="30" viewBox="0 0 28 30" fill="none" xmlns="http://www.w3.org/2000/svg">
<path d="M13.5625 4.77601e-08C14.7632 -0.00016902 15.9207 0.448533 16.8075 1.258C17.6944 2.06748 18.2466 3.17924 18.3558 4.375H25.8125C26.145 4.3751 26.4651 4.50143 26.7081 4.72845C26.9511 4.95548 27.0989 5.26627 27.1215 5.59804C27.1442 5.92981 27.0401 6.25781 26.8302 6.51577C26.6204 6.77374 26.3204 6.94242 25.991 6.98775L25.8125 7H24.7922L22.575 26.215C22.4763 27.0679 22.0674 27.8548 21.4263 28.426C20.7851 28.9971 19.9564 29.3126 19.0978 29.3125H8.02725C7.16861 29.3126 6.33988 28.9971 5.69873 28.426C5.05758 27.8548 4.64874 27.0679 4.55 26.215L2.331 7H1.3125C0.995334 6.99999 0.688901 6.88512 0.449871 6.67666C0.210841 6.46819 0.0553845 6.18022 0.0122499 5.866L0 5.6875C1.33751e-05 5.37033 0.114875 5.0639 0.323342 4.82487C0.53181 4.58584 0.819781 4.43038 1.134 4.38725L1.3125 4.375H8.76925C8.87841 3.17924 9.43063 2.06748 10.3175 1.258C11.2043 0.448533 12.3618 -0.00016902 13.5625 4.77601e-08V4.77601e-08ZM10.9375 10.9375C10.5087 10.9375 10.15 11.2088 10.0765 11.5658L10.0625 11.704V22.4227L10.0765 22.5592C10.15 22.9162 10.5087 23.1875 10.9375 23.1875C11.3663 23.1875 11.725 22.9162 11.7985 22.5592L11.8125 22.421V11.7058L11.7985 11.5658C11.725 11.2105 11.3663 10.9375 10.9375 10.9375ZM16.1875 10.9375C15.7587 10.9375 15.4 11.2088 15.3265 11.5658L15.3125 11.704V22.4227L15.3265 22.5592C15.4 22.9162 15.7587 23.1875 16.1875 23.1875C16.6163 23.1875 16.975 22.9162 17.0485 22.5592L17.0625 22.421V11.7058L17.0485 11.5658C16.975 11.2105 16.6163 10.9392 16.1875 10.9392V10.9375ZM13.5625 2.625C12.5037 2.625 11.62 3.3775 11.4187 4.375H15.7063C15.5033 3.3775 14.6213 2.625 13.5625 2.625V2.625Z" fill="#5454C5"/>
</svg>
