<svg width="35" height="22" viewBox="0 0 35 22" fill="none" xmlns="http://www.w3.org/2000/svg">
<path d="M9.11176 9.57336C8.58181 8.40397 8.30639 7.12063 8.30632 5.82027C8.30632 5.10861 8.40219 4.37734 8.59851 3.58769C8.6864 3.23247 8.79674 2.89277 8.92077 2.56327C8.44481 2.2844 7.92167 2.11292 7.36048 2.11292C5.27934 2.11292 3.59464 4.21688 3.59464 6.8153C3.59464 8.63305 4.42253 10.2062 5.63165 10.9889L0.527705 13.5384C0.209636 13.6988 0 14.0843 0 14.515V18.8381C0 19.4175 0.377041 19.887 0.840828 19.887H3.85754V15.3508C3.85754 14.0291 4.54314 12.8308 5.6073 12.2963L9.51163 10.345C9.3656 10.0957 9.23212 9.83807 9.11176 9.57336Z" fill="#5454C5"/>
<path d="M21.3569 4.79407H34.3278V4.79367L34.33 4.79407C34.7002 4.79407 35 4.47193 35 4.07506V1.44929C35 1.05201 34.6999 0.730271 34.33 0.730271L34.3278 0.73068V0.728638H19.8336C20.4718 1.62989 20.9287 2.66364 21.1751 3.76434C21.2569 4.12732 21.3162 4.46662 21.3569 4.79407Z" fill="#5454C5"/>
<path d="M34.9997 17.7112C34.9997 17.314 34.6995 16.9922 34.3297 16.9922L34.3274 16.9926V16.9906H25.8727V20.7016C25.8727 20.8213 25.8666 20.9393 25.8556 21.0556H34.3274V21.0552L34.3297 21.0556C34.6999 21.0556 34.9997 20.7335 34.9997 20.3366V17.7112Z" fill="#5454C5"/>
<path d="M34.3296 8.86101L34.3274 8.86142V8.85938H20.9026C20.8421 9.03045 20.7782 9.20071 20.7071 9.36934C20.5707 9.69235 20.4152 10.0056 20.2414 10.3072L24.1556 12.3111C24.4494 12.4666 24.7167 12.6741 24.9462 12.9248H34.3274V12.9244L34.3296 12.9248C34.6998 12.9248 34.9996 12.6027 34.9996 12.2058V9.58002C34.9996 9.18275 34.6995 8.86101 34.3296 8.86101Z" fill="#5454C5"/>
<path d="M23.33 14.1447L18.9353 11.895L17.0767 10.9437C17.8886 10.3949 18.5476 9.54809 18.979 8.52775C19.3388 7.67735 19.5249 6.75423 19.525 5.82031C19.525 5.26992 19.4439 4.74771 19.3302 4.24305C18.7774 1.80019 16.9995 0 14.8651 0C12.771 0 11.0201 1.73568 10.4334 4.10954C10.2979 4.6538 10.2043 5.22011 10.2043 5.8199C10.2043 6.86188 10.4311 7.83282 10.8165 8.678C11.262 9.65792 11.9222 10.4659 12.7257 10.9853L10.9459 11.8746L6.40845 14.1423C6.0139 14.3403 5.75519 14.8176 5.75519 15.3504V20.7012C5.75519 21.4182 6.22088 22 6.79576 22H22.934C23.5088 22 23.9745 21.4186 23.9745 20.7012V15.3508C23.9753 14.8196 23.7204 14.3472 23.33 14.1447Z" fill="#5454C5"/>
</svg>
