<svg width="27" height="24" viewBox="0 0 27 24" fill="none" xmlns="http://www.w3.org/2000/svg">
<path d="M17.5 17.5006L11.6667 23.3339H26.25V17.5006H17.5ZM13.2125 4.65264L0 17.8651V23.3339H5.46875L18.6813 10.1214L13.2125 4.65264ZM4.25833 20.4172H2.91667V19.0756L13.2125 8.77973L14.5542 10.1214L4.25833 20.4172ZM22.9104 5.89223C23.0456 5.75731 23.1529 5.59706 23.226 5.42064C23.2992 5.24422 23.3369 5.0551 23.3369 4.8641C23.3369 4.67311 23.2992 4.48399 23.226 4.30757C23.1529 4.13115 23.0456 3.97089 22.9104 3.83598L19.4979 0.423476C19.2245 0.152213 18.8549 0 18.4698 0C18.0846 0 17.7151 0.152213 17.4417 0.423476L14.7729 3.09223L20.2417 8.56098L22.9104 5.89223Z" fill="#5454C5"/>
</svg>
