<svg width="35" height="35" viewBox="0 0 35 35" fill="none" xmlns="http://www.w3.org/2000/svg">
<path d="M17.9049 5.41238C17.7963 5.30111 17.6519 5.23901 17.5016 5.23901C17.3514 5.23901 17.207 5.30111 17.0984 5.41238L3.67448 19.1523C3.61747 19.2107 3.57211 19.2809 3.54116 19.3587C3.5102 19.4364 3.49429 19.5201 3.49437 19.6046L3.49219 32.5C3.49219 33.163 3.73802 33.7989 4.1756 34.2678C4.61319 34.7366 5.20668 35 5.82552 35H12.8328C13.1422 35 13.439 34.8683 13.6577 34.6339C13.8765 34.3995 13.9995 34.0815 13.9995 33.75V23.125C13.9995 22.9592 14.0609 22.8002 14.1703 22.683C14.2797 22.5658 14.4281 22.5 14.5828 22.5H20.4161C20.5708 22.5 20.7192 22.5658 20.8286 22.683C20.938 22.8002 20.9994 22.9592 20.9994 23.125V33.75C20.9994 34.0815 21.1224 34.3995 21.3412 34.6339C21.5599 34.8683 21.8567 35 22.1661 35H29.1705C29.7893 35 30.3828 34.7366 30.8204 34.2678C31.258 33.7989 31.5038 33.163 31.5038 32.5V19.6046C31.5039 19.5201 31.488 19.4364 31.457 19.3587C31.4261 19.2809 31.3807 19.2107 31.3237 19.1523L17.9049 5.41238Z" fill="white"/>
<path d="M34.6288 16.5743L29.1746 10.9836V2.50001C29.1746 2.16849 29.0517 1.85054 28.8329 1.61612C28.6141 1.3817 28.3174 1.25001 28.008 1.25001H24.508C24.1986 1.25001 23.9018 1.3817 23.683 1.61612C23.4642 1.85054 23.3413 2.16849 23.3413 2.50001V5.00002L19.118 0.67344C18.7228 0.245313 18.1351 0 17.5 0C16.8671 0 16.2808 0.245314 15.8856 0.674222L0.376277 16.5727C-0.0772638 17.0415 -0.134139 17.8126 0.278569 18.3204C0.382206 18.4486 0.509102 18.5528 0.651535 18.6268C0.793969 18.7007 0.94896 18.7429 1.10708 18.7506C1.26519 18.7584 1.42312 18.7316 1.57126 18.6718C1.7194 18.6121 1.85465 18.5207 1.96877 18.4032L17.0989 2.91251C17.2075 2.80125 17.3519 2.73915 17.5022 2.73915C17.6524 2.73915 17.7968 2.80125 17.9054 2.91251L33.037 18.4032C33.2599 18.6322 33.5585 18.7572 33.8673 18.7508C34.176 18.7443 34.4698 18.607 34.6842 18.3688C35.1319 17.872 35.0947 17.0516 34.6288 16.5743Z" fill="white"/>
</svg>
