<svg width="35" height="35" viewBox="0 0 35 35" fill="none" xmlns="http://www.w3.org/2000/svg">
<path d="M32.3731 23.6259H2.62513V32.3752H32.3731V23.6259ZM34.9055 21.827L34.9422 21.9355L34.9825 22.1105L35 22.2855V33.6876C34.9999 34.0053 34.8845 34.3121 34.6753 34.5512C34.4661 34.7903 34.1773 34.9454 33.8624 34.9877L33.6874 35H1.31257C0.995384 35 0.688936 34.8851 0.449894 34.6767C0.210852 34.4682 0.0553873 34.1803 0.0122506 33.8661L0 33.6876V22.3135L0.00350034 22.2225L0.0210012 22.072C0.0387635 21.9801 0.0663393 21.8903 0.103255 21.8043L4.9335 11.2719C5.0246 11.0728 5.16409 10.8996 5.33924 10.7682C5.51439 10.6368 5.71964 10.5512 5.9363 10.5194L6.12531 10.5072L10.5705 10.5054L9.18796 12.9027L9.0707 13.1302H6.96535L3.35667 21.0011H31.6241L28.0767 13.3962L29.5852 10.7767C29.7025 10.8641 29.804 10.9744 29.8862 11.0986L29.979 11.2649L34.9055 21.827ZM19.8897 0.100744L20.0508 0.179488L29.1302 5.43432C29.7042 5.7668 29.9317 6.46849 29.6885 7.06695L29.6097 7.22793L24.6972 15.7515H26.6888C27.0238 15.7481 27.3473 15.8729 27.5932 16.1002C27.8392 16.3276 27.9889 16.6403 28.0117 16.9744C28.0345 17.3086 27.9287 17.6388 27.716 17.8974C27.5032 18.1561 27.1996 18.3237 26.8673 18.3658L26.6888 18.3781L23.1852 18.3763V18.3816H16.0466L16.0413 18.3763H8.31292C7.98244 18.3732 7.66529 18.2456 7.42482 18.0189C7.18434 17.7922 7.03825 17.4832 7.01571 17.1535C6.99317 16.8238 7.09584 16.4977 7.30322 16.2405C7.5106 15.9832 7.80742 15.8136 8.13441 15.7655L8.31292 15.7533L11.5033 15.7515L11.1848 15.5678C10.911 15.4082 10.704 15.1553 10.6017 14.8554C10.4995 14.5554 10.5089 14.2287 10.6283 13.9352L10.7053 13.7742L18.2604 0.6572C18.5929 0.0814953 19.293 -0.147737 19.8897 0.0972437V0.100744ZM19.8722 3.11051L13.6314 13.9492L16.7431 15.7515H21.6731L26.6871 7.04945L19.8757 3.10701L19.8722 3.11051Z" fill="white"/>
</svg>
