<svg width="256" height="212" viewBox="0 0 256 212" fill="none" xmlns="http://www.w3.org/2000/svg">
<path fill-rule="evenodd" clip-rule="evenodd" d="M235.653 153.252L243.818 129.717C246.242 122.732 244.404 114.975 239.104 109.82L238.874 109.596C233.545 104.414 230.944 97.0401 231.842 89.6618L234.905 64.4898C236.492 51.4425 227.202 39.5786 214.155 37.9911C213.49 37.9102 212.822 37.8574 212.153 37.8329L202.335 37.4729L182.301 18.3493C175.474 11.8327 165.292 10.3016 156.85 14.5224L134.164 25.8654C130.491 27.7021 126.404 28.5569 122.302 28.3466L103.889 27.4023C94.0644 26.8985 85.3514 33.6615 83.4025 43.3035L80.3159 58.5741C80.113 59.5779 79.9751 60.5938 79.9031 61.6155L77.0084 102.677C76.8696 104.645 76.3613 106.569 75.5101 108.349L67.5498 124.993C65.0732 130.172 64.5517 136.071 66.0812 141.603L69.3019 153.252H235.653Z" fill="#C4C4DE"/>
<path fill-rule="evenodd" clip-rule="evenodd" d="M69.3007 153.252L47.9507 176.427C41.6278 183.291 42.0661 193.98 48.9294 200.303C51.8551 202.998 55.6378 204.575 59.6116 204.755L217.989 211.946C227.311 212.37 235.211 205.156 235.634 195.833C235.646 195.578 235.652 195.322 235.652 195.067V153.252H69.3007Z" fill="#8B8BB5"/>
<mask id="mask0" mask-type="alpha" maskUnits="userSpaceOnUse" x="101" y="0" width="156" height="98">
<path d="M107.974 76.8593V0.228271H101.548V80.0721C101.548 81.8464 102.987 83.2848 104.761 83.2848H157.17C160.912 83.2848 164.583 84.3046 167.788 86.2344L179.783 93.4558C183.989 95.9879 188.805 97.3259 193.715 97.3259H256V90.9004H193.715C189.973 90.9004 186.303 89.8806 183.097 87.9508L171.102 80.7294C166.896 78.1973 162.08 76.8593 157.17 76.8593H107.974Z" fill="white"/>
</mask>
<g mask="url(#mask0)">
<path d="M107.974 76.8593V0.228271H101.548V80.0721C101.548 81.8464 102.987 83.2848 104.761 83.2848H157.17C160.912 83.2848 164.583 84.3046 167.788 86.2344L179.783 93.4558C183.989 95.9879 188.805 97.3259 193.715 97.3259H256V90.9004H193.715C189.973 90.9004 186.303 89.8806 183.097 87.9508L171.102 80.7294C166.896 78.1973 162.08 76.8593 157.17 76.8593H107.974Z" fill="#FF8484"/>
<path fill-rule="evenodd" clip-rule="evenodd" d="M227.799 88.9965H262.069V100.658H227.799V88.9965ZM94.2896 74.9554H128.559V86.6167H94.2896V74.9554ZM99.6442 47.2302V18.0771H114.042L111.305 47.2302H99.6442ZM167.946 72.5756L195.552 85.6647V97.326C194.76 100.355 191.507 101.624 185.795 101.134C180.082 100.644 171.316 98.343 159.497 94.2322L167.946 72.5756Z" fill="#DE6262"/>
</g>
<path fill-rule="evenodd" clip-rule="evenodd" d="M141.411 97.5637L62.4006 21.7656L55.499 119.458L139.865 104.465L141.411 97.5637Z" fill="#FFEECD"/>
<mask id="mask1" mask-type="alpha" maskUnits="userSpaceOnUse" x="16" y="17" width="69" height="101">
<path d="M30.9168 115.875C46.4463 122.141 67.8037 105.545 78.6199 78.8062C89.4361 52.0669 85.6152 25.3102 70.0857 19.0433C54.5562 12.7765 33.1987 29.3726 22.3825 56.1118C11.5663 82.851 15.3872 109.608 30.9168 115.875Z" fill="white"/>
</mask>
<g mask="url(#mask1)">
<path d="M55.0316 119.489C71.7136 118.022 83.2087 93.5392 80.7067 64.8039C78.2046 36.0687 62.6529 13.9629 45.9709 15.4293C29.2889 16.8957 17.7938 41.379 20.2958 70.1143C22.7979 98.8496 38.3496 120.955 55.0316 119.489Z" fill="#F5CB76"/>
<path d="M83.1048 101.252V105.536H57.4025V101.252H45.2653V96.4928H70.2537H95.718V101.252H83.1048ZM82.6289 101.252H70.2537H57.8785V105.06H82.6289V101.252ZM57.4025 100.777H70.2537V96.9688H45.7413V100.777H57.4025ZM70.7296 100.777H83.1048H95.242V96.9688H70.7296V100.777ZM51.6909 33.4269H39.0777V37.2347H63.5901V33.4269H51.6909ZM51.6909 32.951H64.0661V37.7106H39.0777H13.3754V32.951H26.2265V28.6672H51.6909V32.951ZM38.6017 37.2347V33.4269H26.2265H13.8514V37.2347H38.6017ZM51.2149 32.951V29.1432H26.7025V32.951H38.6017H51.2149ZM25.7506 44.1362H51.2149V48.8959H25.7506H0.762207V44.1362H25.7506ZM25.7506 48.4199V44.6122H1.23818V48.4199H25.7506ZM26.2265 48.4199H50.7389V44.6122H26.2265V48.4199Z" fill="white"/>
<path d="M95.4791 112.2H70.4907V116.484H95.4791V112.2Z" stroke="white" stroke-width="1.15726"/>
<path d="M108.093 101.252H83.1045V105.536H108.093V101.252Z" stroke="white" stroke-width="1.15726"/>
</g>
<path fill-rule="evenodd" clip-rule="evenodd" d="M136.882 107.321C132.768 114.186 132.768 118.165 136.882 119.257C140.996 120.349 144.489 116.995 147.362 109.193L136.882 107.321Z" fill="#353535"/>
<path d="M141.767 191.33C169.697 191.33 192.339 188.56 192.339 185.143C192.339 181.725 169.697 178.955 141.767 178.955C113.837 178.955 91.1953 181.725 91.1953 185.143C91.1953 188.56 113.837 191.33 141.767 191.33Z" fill="#353535"/>
<mask id="mask2" mask-type="alpha" maskUnits="userSpaceOnUse" x="57" y="101" width="164" height="100">
<path d="M202.905 182.235L208.369 186.097C208.407 186.123 208.444 186.152 208.48 186.183C209.108 186.721 209.181 187.667 208.642 188.296C207.996 189.049 206.949 189.318 206.02 188.97C199.837 186.652 196.269 184.98 195.315 183.952L180.679 171.22L162.116 166.58L160.926 190.854C159.418 190.986 158.268 191.066 157.475 191.092C150.336 191.33 144.545 191.417 140.75 191.476C136.944 191.535 132.471 191.476 125.987 191.277C125.383 191.258 124.152 191.125 122.296 190.878L124.79 164.852L109.456 180.42C108.234 181.661 106.88 182.763 105.418 183.708L91.4925 192.707C89.8968 193.739 88.1221 194.462 86.2602 194.841L57.879 200.611C57.4633 197.229 58.8516 194.174 62.0437 191.449C64.8294 189.07 74.109 187.458 80.7255 187.046C81.3579 187.007 86.8088 182.524 97.0781 173.597C97.4399 173.283 97.7798 172.944 98.0952 172.583L115.626 152.512C119.855 147.669 125.897 144.787 132.323 144.548L141.412 144.209L143.444 135.037H138.494C134.814 135.037 131.831 132.054 131.831 128.373C131.831 127.641 131.951 126.914 132.188 126.221L137.121 111.767C139.291 105.408 145.267 101.134 151.986 101.134H155.314C160.964 101.134 165.544 105.714 165.544 111.364C165.544 112.547 165.339 113.721 164.938 114.834L153.787 145.756L183.951 156.796C188.037 158.292 191.636 160.88 194.354 164.278L202.574 174.552C209.713 174.235 213.6 174.631 214.235 175.742C214.762 176.664 216.629 178.708 219.837 181.873C220.474 182.502 220.481 183.527 219.852 184.164C219.634 184.385 219.357 184.539 219.054 184.607C217.212 185.02 215.282 184.571 213.813 183.386L212.45 182.286C207.564 182.553 204.47 182.553 203.168 182.286C203.08 182.268 202.993 182.251 202.905 182.235Z" fill="white"/>
</mask>
<g mask="url(#mask2)">
<path d="M202.905 182.235L208.369 186.097C208.407 186.123 208.444 186.152 208.48 186.183C209.108 186.721 209.181 187.667 208.642 188.296C207.996 189.049 206.949 189.318 206.02 188.97C199.837 186.652 196.269 184.98 195.315 183.952L180.679 171.22L162.116 166.58L160.926 190.854C159.418 190.986 158.268 191.066 157.475 191.092C150.336 191.33 144.545 191.417 140.75 191.476C136.944 191.535 132.471 191.476 125.987 191.277C125.383 191.258 124.152 191.125 122.296 190.878L124.79 164.852L109.456 180.42C108.234 181.661 106.88 182.763 105.418 183.708L91.4926 192.707C89.8968 193.739 88.1221 194.462 86.2602 194.841L57.879 200.611C57.4633 197.229 58.8516 194.174 62.0437 191.449C64.8294 189.07 74.109 187.458 80.7255 187.046C81.3579 187.007 86.8088 182.524 97.0781 173.597C97.4399 173.283 97.7798 172.944 98.0952 172.583L115.626 152.512C119.855 147.669 125.897 144.787 132.323 144.548L141.412 144.209L143.444 135.037H138.494C134.814 135.037 131.831 132.054 131.831 128.373C131.831 127.641 131.951 126.914 132.188 126.221L137.121 111.767C139.291 105.408 145.267 101.134 151.986 101.134H155.314C160.964 101.134 165.544 105.714 165.544 111.364C165.544 112.547 165.339 113.721 164.938 114.834L153.787 145.756L183.951 156.796C188.037 158.292 191.636 160.88 194.354 164.278L202.574 174.552C209.713 174.235 213.6 174.631 214.235 175.742C214.762 176.664 216.629 178.708 219.837 181.873C220.474 182.502 220.481 183.527 219.852 184.164C219.634 184.385 219.357 184.539 219.054 184.607C217.212 185.02 215.282 184.571 213.813 183.386L212.45 182.286C207.564 182.553 204.47 182.553 203.169 182.286C203.08 182.268 202.993 182.251 202.905 182.235Z" fill="#FFCDCD"/>
<path fill-rule="evenodd" clip-rule="evenodd" d="M135.937 143.852C138.079 147.501 141.649 149.563 146.646 150.039C151.644 150.515 155.293 149.325 157.594 146.469L182.82 151.564L172.23 170.982L166.875 170.268L162.19 191.205L118.339 194.185L124.917 165.175L118.339 177.494L100.001 157.127C107.924 149.339 114.933 144.636 121.03 143.019C127.127 141.403 132.096 141.68 135.937 143.852Z" fill="#FFF9D6"/>
</g>
<path fill-rule="evenodd" clip-rule="evenodd" d="M162.042 113.362L166.874 114.519C166.917 122.73 164.76 126.297 160.406 125.221C158.228 124.683 156.996 123.359 156.707 121.248C154.878 122.741 152.973 123.15 150.994 122.475C146.979 121.104 146.792 117.084 150.434 110.415L162.115 113.2C162.091 113.254 162.066 113.309 162.042 113.362V113.362Z" fill="#353535"/>
<mask id="mask3" mask-type="alpha" maskUnits="userSpaceOnUse" x="134" y="98" width="36" height="18">
<path d="M134.985 106.837L169.017 115.413C167.606 114.083 166.932 113.068 166.994 112.368C167.695 104.431 163.292 101.923 154.253 99.9605C145.17 97.9885 142.399 97.7663 138.526 104.5C138.199 105.069 137.019 105.848 134.985 106.837Z" fill="white"/>
</mask>
<g mask="url(#mask3)">
<path d="M134.985 106.837L169.017 115.413C167.606 114.083 166.932 113.068 166.994 112.368C167.695 104.431 163.292 101.923 154.253 99.9605C145.17 97.9885 142.399 97.7663 138.526 104.5C138.199 105.069 137.019 105.848 134.985 106.837Z" fill="#3C3CA0"/>
<path fill-rule="evenodd" clip-rule="evenodd" d="M141.888 104.227L167.709 111.129L168.423 108.392L142.84 100.657L141.888 104.227Z" fill="#26266F"/>
</g>
<path d="M140.578 105.655C143.141 105.655 145.218 103.577 145.218 101.014C145.218 98.4515 143.141 96.3738 140.578 96.3738C138.015 96.3738 135.937 98.4515 135.937 101.014C135.937 103.577 138.015 105.655 140.578 105.655Z" fill="#F5CB76"/>
<path d="M140.577 104.466C142.615 104.466 144.266 102.921 144.266 101.015C144.266 99.1089 142.615 97.564 140.577 97.564C138.54 97.564 136.889 99.1089 136.889 101.015C136.889 102.921 138.54 104.466 140.577 104.466Z" fill="#FFEECD"/>
<path d="M139.109 113.003C138.605 111.812 137.874 111.248 136.888 111.248V110.534C138.119 110.534 139.055 111.21 139.669 112.508C142.057 111.085 144.063 111.604 145.524 114.039C145.625 114.208 145.57 114.428 145.401 114.529C145.232 114.63 145.013 114.576 144.912 114.407C143.603 112.226 141.95 111.862 139.771 113.286L134.835 121.638L137.729 122.202C137.923 122.24 138.049 122.427 138.011 122.621C137.973 122.814 137.786 122.94 137.593 122.903L134.202 122.242C133.96 122.195 133.838 121.922 133.963 121.71L139.109 113.003ZM141.886 116.365C141.36 116.365 140.934 115.939 140.934 115.413C140.934 114.887 141.36 114.461 141.886 114.461C142.412 114.461 142.838 114.887 142.838 115.413C142.838 115.939 142.412 116.365 141.886 116.365ZM136.888 114.937C136.363 114.937 135.936 114.511 135.936 113.985C135.936 113.459 136.363 113.033 136.888 113.033C137.414 113.033 137.84 113.459 137.84 113.985C137.84 114.511 137.414 114.937 136.888 114.937ZM135.375 126.995C134.292 126.699 133.612 125.802 133.856 124.992C134.1 124.182 135.177 123.764 136.26 124.06C137.343 124.355 138.023 125.252 137.779 126.062C137.534 126.873 136.458 127.29 135.375 126.995ZM132.627 130.163C132.695 129.978 132.9 129.884 133.085 129.952C133.27 130.02 133.365 130.225 133.296 130.41L132.464 132.671C132.395 132.856 132.19 132.951 132.005 132.883C131.82 132.815 131.725 132.609 131.794 132.424L132.627 130.163ZM134.054 130.639C134.123 130.454 134.328 130.36 134.513 130.428C134.698 130.496 134.793 130.701 134.724 130.886L133.891 133.147C133.823 133.332 133.618 133.427 133.433 133.359C133.248 133.291 133.153 133.085 133.221 132.9L134.054 130.639ZM135.482 131.115C135.551 130.93 135.756 130.836 135.941 130.904C136.126 130.972 136.22 131.177 136.152 131.362L135.319 133.623C135.251 133.808 135.046 133.903 134.861 133.835C134.676 133.766 134.581 133.561 134.649 133.376L135.482 131.115Z" fill="#353535"/>
<path fill-rule="evenodd" clip-rule="evenodd" d="M174.966 37.2348V41.9945H149.978H124.276V37.2348H129.035V32.4751H154.024H179.488V37.2348H174.966ZM154.024 46.9921H179.488V51.7518H154.024V46.9921ZM96.1934 133.618V138.14H70.4911V133.618H57.8779V128.859H82.8663H108.331V133.618H96.1934ZM232.321 73.1704H245.172V77.9301H220.183H194.481V73.1704H181.868V68.4107H206.856H232.321V73.1704ZM213.52 127.074H230.417V131.834H204.952V127.312H188.055V122.552H213.52V127.074Z" fill="#8B8BB5"/>
<path d="M25.9884 28.9053H1V33.189H25.9884V28.9053Z" stroke="white" stroke-width="1.15726"/>
<path d="M42.7586 71.9868V74.2295H40.6929V75.9116H38.037V74.2295H30.748V71.9868L38.037 65.5831H40.6929V71.9868H42.7586ZM33.6105 71.9868H38.037V68.239L33.6105 71.9868ZM49.5017 76.0592C45.3998 76.0592 43.4521 74.1705 43.4521 70.7326C43.4521 67.3094 45.3998 65.4355 49.5017 65.4355C53.5888 65.4355 55.5513 67.3242 55.5513 70.7326C55.5513 74.1558 53.5888 76.0592 49.5017 76.0592ZM49.5017 73.8312C51.833 73.8312 52.8954 72.6655 52.8954 70.7326C52.8954 68.8144 51.833 67.6636 49.5017 67.6636C47.1704 67.6636 46.108 68.7997 46.108 70.7326C46.108 72.6803 47.1704 73.8312 49.5017 73.8312ZM68.4324 71.9868V74.2295H66.3667V75.9116H63.7108V74.2295H56.4218V71.9868L63.7108 65.5831H66.3667V71.9868H68.4324ZM59.2843 71.9868H63.7108V68.239L59.2843 71.9868Z" fill="white"/>
<path fill-rule="evenodd" clip-rule="evenodd" d="M153.786 80.429H155.928V85.1886H153.786V80.429ZM207.571 94.2321H209.712V98.9917H207.571V94.2321Z" fill="#8B8BB5"/>
<path fill-rule="evenodd" clip-rule="evenodd" d="M177.109 187.046H138.555V191.449H134.985V176.694C134.985 175.708 135.784 174.909 136.77 174.909C137.756 174.909 138.555 175.708 138.555 176.694V183.476H177.109V176.694C177.109 175.708 177.908 174.909 178.893 174.909C179.879 174.909 180.678 175.708 180.678 176.694V189.069L177.109 189.545V187.046Z" fill="#FF8484"/>
<path d="M69.0937 194.911C67.5221 195.382 66.4458 196.829 66.4458 198.469C66.4458 198.666 66.6056 198.826 66.8028 198.826C66.9999 198.826 67.1598 198.666 67.1598 198.469C67.1598 197.144 68.0292 195.975 69.2988 195.594L72.855 194.528C72.9617 194.496 73.0474 194.415 73.0866 194.311C73.2282 193.934 74.2173 193.287 75.9927 192.488C77.6396 191.747 78.5618 191.624 79.6716 191.766L79.823 191.786C79.8822 191.793 79.9277 191.799 79.9715 191.804C80.1674 191.825 80.3439 191.684 80.3657 191.488C80.3875 191.292 80.2463 191.116 80.0504 191.094C80.0113 191.09 79.9695 191.085 79.914 191.077C79.897 191.075 79.7935 191.062 79.762 191.058C78.5252 190.9 77.4703 191.04 75.6997 191.837C73.9063 192.644 72.8559 193.298 72.5023 193.888L69.0937 194.911Z" fill="#353535"/>
<path fill-rule="evenodd" clip-rule="evenodd" d="M154.977 124.613C159.803 125.866 162.61 124.93 163.398 121.805C163.995 119.435 162.744 117.479 160 118.142C159.417 118.283 158.298 119.356 156.642 121.362L154.977 124.613Z" fill="#FFCDCD"/>
<path d="M206.787 178.594L210.415 178.085C212.322 177.817 214.253 178.373 215.727 179.614L220.073 183.273C220.223 183.4 220.449 183.381 220.576 183.23C220.703 183.08 220.683 182.854 220.532 182.727L216.186 179.068C214.558 177.696 212.424 177.082 210.316 177.378L206.688 177.887C206.493 177.915 206.356 178.095 206.384 178.29C206.411 178.486 206.592 178.622 206.787 178.594Z" fill="#353535"/>
<path d="M149.74 37.4728H129.036V36.9968H154.262V32.4751H154.738V36.9968H174.967V37.4728H150.216V41.9945H149.74V37.4728ZM219.946 73.4084H194.6C194.469 73.4084 194.362 73.3019 194.362 73.1704C194.362 73.039 194.469 72.9325 194.6 72.9325H207.095V68.4107H207.571V72.9325H232.321C232.452 72.9325 232.559 73.039 232.559 73.1704C232.559 73.3019 232.452 73.4084 232.321 73.4084H220.422V77.9301H219.946V73.4084ZM204.953 127.431C204.821 127.431 204.715 127.324 204.715 127.193C204.715 127.061 204.821 126.955 204.953 126.955H213.52C213.652 126.955 213.758 127.061 213.758 127.193C213.758 127.324 213.652 127.431 213.52 127.431H204.953ZM82.8667 133.38V128.859H83.3427V133.38H96.1938V133.856H70.7295V133.38H82.8667Z" fill="#353535"/>
</svg>
